<mxfile host="app.diagrams.net" modified="2023-01-12T05:00:36.877Z" agent="5.0 (Windows NT 10.0; Win64; x64) AppleWebKit/537.36 (KHTML, like Gecko) Chrome/109.0.0.0 Safari/537.36" etag="rKYJKOL1YbcNHYSaRmrY" version="20.8.4" type="github">
  <diagram id="C5RBs43oDa-KdzZeNtuy" name="Page-1">
    <mxGraphModel dx="1434" dy="756" grid="1" gridSize="10" guides="1" tooltips="1" connect="1" arrows="1" fold="1" page="1" pageScale="1" pageWidth="827" pageHeight="1169" math="0" shadow="0">
      <root>
        <mxCell id="WIyWlLk6GJQsqaUBKTNV-0" />
        <mxCell id="WIyWlLk6GJQsqaUBKTNV-1" parent="WIyWlLk6GJQsqaUBKTNV-0" />
        <mxCell id="Qj4DWcvhCuBi7caTiBJ--10" style="edgeStyle=orthogonalEdgeStyle;rounded=0;orthogonalLoop=1;jettySize=auto;html=1;exitX=0.5;exitY=1;exitDx=0;exitDy=0;" edge="1" parent="WIyWlLk6GJQsqaUBKTNV-1" source="Qj4DWcvhCuBi7caTiBJ--0" target="Qj4DWcvhCuBi7caTiBJ--1">
          <mxGeometry relative="1" as="geometry" />
        </mxCell>
        <mxCell id="Qj4DWcvhCuBi7caTiBJ--11" style="edgeStyle=orthogonalEdgeStyle;rounded=0;orthogonalLoop=1;jettySize=auto;html=1;exitX=0.5;exitY=1;exitDx=0;exitDy=0;entryX=0.617;entryY=-0.05;entryDx=0;entryDy=0;entryPerimeter=0;" edge="1" parent="WIyWlLk6GJQsqaUBKTNV-1" source="Qj4DWcvhCuBi7caTiBJ--0" target="Qj4DWcvhCuBi7caTiBJ--2">
          <mxGeometry relative="1" as="geometry" />
        </mxCell>
        <mxCell id="Qj4DWcvhCuBi7caTiBJ--0" value="原神サイト" style="rounded=0;whiteSpace=wrap;html=1;" vertex="1" parent="WIyWlLk6GJQsqaUBKTNV-1">
          <mxGeometry x="290" y="150" width="120" height="60" as="geometry" />
        </mxCell>
        <mxCell id="Qj4DWcvhCuBi7caTiBJ--12" style="edgeStyle=orthogonalEdgeStyle;rounded=0;orthogonalLoop=1;jettySize=auto;html=1;entryX=0.5;entryY=0;entryDx=0;entryDy=0;" edge="1" parent="WIyWlLk6GJQsqaUBKTNV-1" source="Qj4DWcvhCuBi7caTiBJ--1" target="Qj4DWcvhCuBi7caTiBJ--4">
          <mxGeometry relative="1" as="geometry" />
        </mxCell>
        <mxCell id="Qj4DWcvhCuBi7caTiBJ--13" style="edgeStyle=orthogonalEdgeStyle;rounded=0;orthogonalLoop=1;jettySize=auto;html=1;entryX=0.5;entryY=0;entryDx=0;entryDy=0;" edge="1" parent="WIyWlLk6GJQsqaUBKTNV-1" source="Qj4DWcvhCuBi7caTiBJ--1" target="Qj4DWcvhCuBi7caTiBJ--3">
          <mxGeometry relative="1" as="geometry" />
        </mxCell>
        <mxCell id="Qj4DWcvhCuBi7caTiBJ--14" style="edgeStyle=orthogonalEdgeStyle;rounded=0;orthogonalLoop=1;jettySize=auto;html=1;entryX=0.5;entryY=0;entryDx=0;entryDy=0;" edge="1" parent="WIyWlLk6GJQsqaUBKTNV-1" source="Qj4DWcvhCuBi7caTiBJ--1" target="Qj4DWcvhCuBi7caTiBJ--5">
          <mxGeometry relative="1" as="geometry" />
        </mxCell>
        <mxCell id="Qj4DWcvhCuBi7caTiBJ--1" value="どういうゲームか" style="rounded=0;whiteSpace=wrap;html=1;" vertex="1" parent="WIyWlLk6GJQsqaUBKTNV-1">
          <mxGeometry x="250" y="280" width="120" height="60" as="geometry" />
        </mxCell>
        <mxCell id="Qj4DWcvhCuBi7caTiBJ--15" style="edgeStyle=orthogonalEdgeStyle;rounded=0;orthogonalLoop=1;jettySize=auto;html=1;entryX=0.5;entryY=0;entryDx=0;entryDy=0;" edge="1" parent="WIyWlLk6GJQsqaUBKTNV-1" source="Qj4DWcvhCuBi7caTiBJ--2" target="Qj4DWcvhCuBi7caTiBJ--9">
          <mxGeometry relative="1" as="geometry" />
        </mxCell>
        <mxCell id="Qj4DWcvhCuBi7caTiBJ--2" value="どのような人におすすめか" style="rounded=0;whiteSpace=wrap;html=1;" vertex="1" parent="WIyWlLk6GJQsqaUBKTNV-1">
          <mxGeometry x="510" y="280" width="120" height="60" as="geometry" />
        </mxCell>
        <mxCell id="Qj4DWcvhCuBi7caTiBJ--3" value="キャラクター" style="rounded=0;whiteSpace=wrap;html=1;" vertex="1" parent="WIyWlLk6GJQsqaUBKTNV-1">
          <mxGeometry x="180" y="410" width="120" height="60" as="geometry" />
        </mxCell>
        <mxCell id="Qj4DWcvhCuBi7caTiBJ--4" value="ストーリー" style="rounded=0;whiteSpace=wrap;html=1;" vertex="1" parent="WIyWlLk6GJQsqaUBKTNV-1">
          <mxGeometry x="40" y="410" width="120" height="60" as="geometry" />
        </mxCell>
        <mxCell id="Qj4DWcvhCuBi7caTiBJ--5" value="世界観" style="rounded=0;whiteSpace=wrap;html=1;" vertex="1" parent="WIyWlLk6GJQsqaUBKTNV-1">
          <mxGeometry x="330" y="410" width="120" height="60" as="geometry" />
        </mxCell>
        <mxCell id="Qj4DWcvhCuBi7caTiBJ--9" value="ダウンロードURL" style="rounded=0;whiteSpace=wrap;html=1;" vertex="1" parent="WIyWlLk6GJQsqaUBKTNV-1">
          <mxGeometry x="510" y="410" width="120" height="60" as="geometry" />
        </mxCell>
      </root>
    </mxGraphModel>
  </diagram>
</mxfile>
